<?xml version="1.0" standalone="no"?>
<!DOCTYPE svg PUBLIC "-//W3C//DTD SVG 20010904//EN"
 "http://www.w3.org/TR/2001/REC-SVG-20010904/DTD/svg10.dtd">
<svg version="1.0" xmlns="http://www.w3.org/2000/svg"
 width="1280.000000pt" height="972.000000pt" viewBox="0 0 1280.000000 972.000000"
 preserveAspectRatio="xMidYMid meet">
<g transform="translate(0.000000,972.000000) scale(0.100000,-0.100000)"
fill="#000000" stroke="none">
<path d="M3150 9622 c-139 -64 -357 -176 -415 -212 -352 -219 -547 -462 -610
-762 -19 -88 -28 -240 -18 -302 7 -46 11 -50 42 -59 19 -5 46 -17 59 -28 30
-23 65 -24 146 -3 153 39 333 153 436 278 208 253 334 551 400 946 11 69 23
133 26 143 7 22 -18 22 -66 -1z"/>
<path d="M9590 9631 c0 -27 52 -307 70 -376 97 -371 273 -681 478 -845 107
-85 307 -170 400 -170 16 0 41 9 55 21 15 11 42 23 62 26 30 5 35 10 41 41 12
64 -3 282 -26 367 -97 362 -397 647 -936 889 -126 57 -144 63 -144 47z"/>
<path d="M1543 9193 c-183 -353 -263 -621 -263 -876 0 -147 12 -223 51 -342
50 -150 173 -346 241 -384 24 -14 29 -13 63 10 48 32 151 169 208 277 94 180
131 374 108 569 -16 141 -60 307 -123 467 -56 142 -187 407 -203 413 -6 2 -43
-59 -82 -134z"/>
<path d="M11087 9158 c-122 -248 -190 -441 -223 -633 -24 -135 -15 -342 20
-458 55 -183 194 -411 284 -464 l44 -26 26 20 c79 59 198 257 247 413 88 283
42 612 -144 1020 -68 149 -149 300 -161 300 -5 0 -47 -78 -93 -172z"/>
<path d="M2810 8306 c-203 -70 -243 -86 -380 -157 -430 -223 -658 -540 -664
-923 l-1 -90 32 -7 c17 -3 46 -18 63 -33 26 -21 41 -26 88 -26 70 0 200 30
277 64 258 115 489 403 652 816 27 69 123 384 123 404 0 13 -42 2 -190 -48z"/>
<path d="M9816 8313 c8 -27 23 -83 34 -126 98 -376 321 -764 540 -938 134
-106 320 -179 461 -179 47 0 62 5 94 30 23 18 49 30 68 30 l30 0 -5 113 c-24
499 -372 845 -1081 1076 -163 53 -160 53 -141 -6z"/>
<path d="M11794 7854 c-246 -311 -374 -552 -425 -795 -29 -141 -23 -312 16
-444 32 -111 112 -277 157 -327 31 -36 35 -37 72 -29 52 13 98 52 178 151 244
302 312 619 232 1085 -24 139 -115 485 -128 485 -2 0 -48 -56 -102 -126z"/>
<path d="M881 7903 c-11 -38 -29 -100 -40 -139 -93 -317 -116 -680 -58 -905
46 -178 113 -311 227 -452 81 -100 127 -137 181 -147 51 -10 63 1 128 115 60
104 117 277 132 394 31 259 -61 542 -281 871 -70 104 -248 330 -260 330 -5 0
-18 -30 -29 -67z"/>
<path d="M2185 7044 c-265 -189 -459 -365 -579 -524 -68 -89 -147 -246 -177
-350 -30 -105 -37 -312 -15 -438 20 -116 28 -132 66 -132 16 0 32 -4 35 -10 3
-5 25 -10 48 -10 86 0 262 105 376 226 232 244 355 586 376 1044 3 69 8 160
10 203 4 58 2 77 -7 77 -7 0 -67 -39 -133 -86z"/>
<path d="M10485 6963 c3 -93 11 -213 16 -268 54 -531 278 -918 630 -1085 64
-30 141 -40 154 -20 3 6 19 10 34 10 16 0 33 6 40 13 46 56 61 390 23 529 -76
280 -235 492 -572 760 -110 88 -308 228 -322 228 -6 0 -7 -62 -3 -167z"/>
<path d="M380 6464 c0 -22 5 -100 10 -174 25 -335 108 -634 234 -848 129 -217
253 -339 438 -427 78 -38 123 -44 154 -20 10 8 31 15 46 15 23 0 29 6 37 38
42 161 47 365 12 510 -76 312 -337 595 -812 880 -120 72 -119 72 -119 26z"/>
<path d="M12295 6432 c-519 -318 -759 -598 -816 -947 -15 -98 -6 -306 18 -399
17 -65 20 -69 58 -84 63 -25 121 -20 195 18 145 73 253 169 360 318 195 273
285 587 313 1090 3 49 1 72 -7 72 -6 0 -60 -31 -121 -68z"/>
<path d="M2131 5820 c-412 -446 -572 -825 -506 -1201 16 -95 49 -198 90 -280
27 -54 30 -57 73 -63 60 -8 111 18 206 106 259 238 378 552 363 953 -8 201
-22 304 -83 593 -2 12 -8 22 -13 22 -5 0 -64 -58 -130 -130z"/>
<path d="M10538 5944 c-10 -16 -66 -313 -79 -419 -17 -144 -15 -391 4 -501 45
-254 162 -474 339 -638 99 -93 149 -118 212 -110 44 7 49 10 73 58 83 164 121
365 102 539 -25 238 -122 455 -321 719 -99 131 -321 368 -330 352z"/>
<path d="M220 5087 c0 -2 35 -79 78 -173 116 -252 248 -454 405 -620 109 -115
195 -181 312 -239 199 -99 450 -124 499 -50 11 16 33 29 62 36 l46 12 -6 58
c-12 105 -45 212 -101 324 -175 352 -508 539 -1131 635 -126 19 -164 23 -164
17z"/>
<path d="M12365 5060 c-446 -77 -684 -175 -880 -362 -120 -114 -198 -235 -252
-393 -28 -82 -57 -236 -46 -246 5 -3 25 -12 46 -19 21 -6 45 -22 53 -35 31
-47 109 -56 259 -30 193 34 353 122 516 284 115 114 233 267 322 416 51 84
197 387 197 407 0 13 -44 8 -215 -22z"/>
<path d="M2413 4607 c-384 -512 -501 -927 -370 -1312 29 -83 89 -207 124 -254
24 -31 29 -33 67 -27 74 12 149 81 268 247 192 267 240 585 152 1003 -39 184
-121 457 -140 463 -5 1 -50 -52 -101 -120z"/>
<path d="M10242 4603 c-181 -552 -176 -958 14 -1274 64 -106 165 -231 220
-273 25 -19 63 -37 85 -41 56 -10 76 12 144 149 86 177 100 238 100 446 0 160
-3 184 -28 274 -63 229 -179 446 -379 714 -54 72 -102 132 -106 132 -4 0 -26
-57 -50 -127z"/>
<path d="M446 3953 c10 -16 54 -89 97 -163 237 -405 531 -672 844 -766 75 -23
108 -27 223 -28 148 -1 187 8 215 51 9 14 41 36 71 49 30 13 54 26 54 28 0 15
-54 173 -76 222 -32 72 -103 183 -162 252 -95 111 -291 233 -469 291 -158 52
-472 91 -724 91 l-91 0 18 -27z"/>
<path d="M2967 3810 c-127 -260 -189 -440 -222 -639 -26 -151 -17 -363 19
-486 51 -170 173 -382 253 -439 l41 -29 34 21 c59 37 156 174 224 316 125 264
121 553 -11 911 -35 97 -180 398 -229 480 l-25 40 -84 -175z"/>
<path d="M9738 3959 c-39 -61 -161 -305 -203 -408 -98 -239 -135 -403 -135
-593 0 -131 15 -216 60 -338 53 -147 186 -349 253 -385 l36 -19 38 30 c55 44
174 227 216 331 142 356 84 744 -195 1297 -53 107 -55 108 -70 85z"/>
<path d="M12030 3969 c-330 -25 -536 -81 -735 -204 -106 -65 -245 -206 -307
-312 -52 -88 -114 -238 -124 -300 -6 -39 -6 -39 36 -53 25 -8 52 -27 66 -46
39 -51 72 -59 224 -58 115 1 148 5 223 28 181 54 332 150 498 315 147 147 240
268 358 465 55 93 101 170 101 172 0 7 -219 2 -340 -7z"/>
<path d="M3631 3133 c-56 -348 -42 -697 36 -930 77 -232 261 -484 412 -566 46
-26 57 -28 103 -20 l52 8 32 75 c18 42 45 116 60 165 25 82 28 104 28 255 1
192 -13 255 -93 426 -90 190 -202 337 -428 562 -90 89 -167 162 -172 162 -5 0
-18 -62 -30 -137z"/>
<path d="M8994 3129 c-231 -228 -349 -378 -437 -554 -117 -234 -143 -449 -83
-686 25 -101 79 -241 101 -263 7 -7 33 -13 57 -14 144 -5 405 296 501 578 58
169 71 266 71 515 0 190 -4 258 -23 390 -13 88 -27 164 -32 169 -5 6 -68 -49
-155 -135z"/>
<path d="M1555 2928 c-90 -6 -463 -63 -472 -71 -1 -2 32 -40 73 -87 41 -46 91
-110 110 -142 37 -61 142 -160 278 -262 328 -247 653 -327 951 -235 53 16 71
28 101 64 20 25 58 57 85 72 27 14 49 31 49 36 0 16 -69 137 -119 207 -90 128
-191 218 -322 289 -100 54 -201 86 -344 110 -149 24 -249 29 -390 19z"/>
<path d="M11002 2929 c-204 -17 -401 -75 -535 -156 -71 -43 -192 -155 -252
-233 -53 -70 -135 -209 -135 -231 0 -9 23 -31 53 -49 29 -17 60 -44 69 -60 23
-40 53 -57 144 -81 116 -31 297 -31 419 0 164 42 331 126 490 246 135 102 235
196 280 263 24 37 76 102 116 145 39 43 69 80 66 83 -3 3 -83 18 -179 34 -156
25 -217 32 -383 44 -27 2 -96 0 -153 -5z"/>
<path d="M4500 2386 c0 -12 133 -343 155 -387 138 -271 337 -528 501 -645 136
-97 323 -164 462 -164 66 0 76 3 100 27 14 14 44 32 67 38 50 15 52 26 30 158
-18 109 -54 224 -93 302 -116 232 -336 410 -653 528 -194 73 -569 167 -569
143z"/>
<path d="M8115 2355 c-418 -99 -659 -211 -848 -394 -130 -126 -212 -269 -258
-450 -21 -83 -38 -226 -30 -240 3 -5 20 -12 38 -15 17 -4 46 -21 63 -38 l33
-31 91 6 c50 3 118 13 151 21 81 22 215 87 289 140 170 122 361 367 496 637
48 94 160 368 160 390 0 15 -37 10 -185 -26z"/>
<path d="M2605 2065 c-102 -16 -214 -45 -340 -89 -148 -50 -269 -96 -278 -105
-4 -4 32 -40 81 -78 57 -46 96 -85 108 -109 23 -47 95 -96 271 -186 151 -77
233 -109 366 -143 232 -59 447 -39 645 58 35 17 71 42 80 56 10 14 50 58 90
97 l73 71 -72 88 c-148 179 -334 294 -552 340 -85 18 -358 18 -472 0z"/>
<path d="M9685 2056 c-166 -43 -298 -118 -423 -239 -80 -78 -156 -171 -150
-185 1 -5 26 -28 53 -52 28 -23 59 -59 71 -79 25 -44 79 -82 164 -115 126 -49
186 -60 335 -60 120 0 155 4 245 27 134 34 235 73 371 143 164 84 255 146 278
191 11 22 49 61 91 93 128 98 118 87 95 96 -11 4 -71 27 -134 51 -300 115
-487 153 -739 153 -142 -1 -181 -5 -257 -24z"/>
<path d="M4026 1469 c-192 -28 -409 -115 -626 -251 -104 -66 -330 -228 -330
-237 0 -3 39 -22 87 -41 67 -27 90 -42 103 -65 24 -44 64 -63 216 -101 443
-111 780 -73 1039 118 70 52 101 87 201 228 l75 105 -33 28 c-57 49 -190 126
-273 158 -155 61 -309 80 -459 58z"/>
<path d="M8462 1455 c-59 -14 -142 -43 -197 -69 -98 -46 -245 -141 -245 -158
0 -6 26 -47 59 -91 32 -45 65 -96 74 -112 18 -36 93 -107 158 -153 80 -54 187
-103 287 -129 86 -23 117 -26 272 -27 190 0 275 11 479 64 128 34 170 54 188
92 12 23 97 70 171 92 12 4 22 11 22 16 0 12 -168 136 -295 219 -215 139 -436
232 -634 265 -128 22 -216 19 -339 -9z"/>
<path d="M6303 1229 c-80 -39 -125 -115 -125 -209 0 -68 16 -107 75 -185 54
-72 90 -95 149 -95 52 0 86 21 140 86 82 99 105 184 73 275 -44 124 -196 186
-312 128z"/>
<path d="M5247 1045 c-268 -51 -528 -198 -865 -489 -51 -44 -92 -83 -92 -87 0
-4 21 -12 47 -19 82 -20 142 -50 145 -73 5 -31 61 -54 193 -79 101 -18 156
-22 345 -22 211 0 231 2 322 26 182 50 327 134 440 256 48 53 198 280 198 301
0 12 -141 93 -216 125 -166 68 -357 91 -517 61z"/>
<path d="M7245 1045 c-38 -7 -99 -23 -135 -35 -73 -25 -226 -101 -265 -131
l-24 -20 80 -132 c44 -73 102 -154 127 -180 113 -117 255 -197 430 -245 91
-24 111 -26 322 -26 188 0 244 4 343 22 130 24 197 52 197 81 0 20 42 40 148
71 23 7 42 16 42 20 0 4 -33 37 -72 72 -452 403 -844 568 -1193 503z"/>
</g>
</svg>
