<svg width="24" height="10" viewBox="0 0 24 10" fill="none" xmlns="http://www.w3.org/2000/svg">
<path d="M13.2755 4.48306H21.3637C21.9301 4.48306 22.4733 4.27758 22.8739 3.91179C23.2745 3.54601 23.4997 3.04985 23.5 2.5324C23.5 2.01476 23.2749 1.51832 22.8743 1.15229C22.4737 0.786265 21.9303 0.580633 21.3637 0.580633H13.2755C12.7089 0.580633 12.1655 0.786265 11.7649 1.15229C11.3643 1.51832 11.1392 2.01476 11.1392 2.5324C11.1395 3.04985 11.3647 3.54601 11.7653 3.91179C12.1659 4.27758 12.7091 4.48306 13.2755 4.48306ZM2.6363 9.45361H11.9335C12.4999 9.45361 13.0431 9.24813 13.4437 8.88234C13.8443 8.51655 14.0695 8.02039 14.0698 7.50295C14.0698 6.9853 13.8447 6.48886 13.4441 6.12284C13.0435 5.75681 12.5001 5.55118 11.9335 5.55118H2.6363C2.06972 5.55118 1.52634 5.75681 1.12571 6.12284C0.725074 6.48886 0.5 6.9853 0.5 7.50295C0.500321 8.02039 0.725536 8.51655 1.12614 8.88234C1.52674 9.24813 2.06993 9.45361 2.6363 9.45361ZM1.75857 4.41237H2.70159V1.26436H3.92268V0.5H0.537479V1.26215H1.75857V4.41237ZM5.15586 4.41237H6.09888V1.41127H6.11097L7.19906 4.41016H7.92446L9.04883 1.41127H9.06092V4.41016H10.0039V0.5H8.57128L7.5799 3.05155H7.56781L6.58247 0.5H5.15586V4.41237ZM18.9288 6.64912C18.8027 6.40884 18.6153 6.19974 18.3823 6.0394C18.1406 5.87793 17.866 5.76226 17.5747 5.69919C17.2556 5.62635 16.928 5.58926 16.599 5.58873H15.1845V9.49889H16.726C17.0356 9.50026 17.3436 9.4574 17.6388 9.37187C17.9174 9.29439 18.1778 9.17002 18.4065 9.00515C18.6289 8.84022 18.8092 8.63288 18.9348 8.39764C19.0706 8.13627 19.1381 7.84965 19.1319 7.56038C19.1417 7.2464 19.0722 6.93457 18.9288 6.64912ZM18.0305 8.07732C17.9598 8.22471 17.8501 8.35376 17.7113 8.45287C17.5671 8.54973 17.4024 8.61818 17.2277 8.6539C17.0295 8.69562 16.8266 8.71601 16.6232 8.71465H16.1336V6.39507H16.6897C16.8805 6.3942 17.0706 6.41762 17.2543 6.46465C17.4234 6.50629 17.5824 6.57634 17.7234 6.67121C17.8527 6.76413 17.9576 6.88225 18.0305 7.01694C18.1135 7.17225 18.155 7.34338 18.1514 7.5162C18.1567 7.70908 18.1154 7.90066 18.0305 8.07732ZM23.4263 8.06296C23.3835 7.95617 23.3187 7.8579 23.2352 7.77356C23.1522 7.68969 23.053 7.62043 22.9427 7.56922C22.8223 7.5137 22.6928 7.4764 22.5594 7.45876V7.44772C22.7668 7.39332 22.9524 7.28512 23.0938 7.13623C23.2331 6.98103 23.3054 6.78454 23.2969 6.58395C23.3059 6.40405 23.2576 6.22562 23.1579 6.07032C23.0668 5.9437 22.942 5.84032 22.7952 5.76988C22.6372 5.69536 22.4661 5.64676 22.2898 5.62629C22.1048 5.60214 21.9181 5.58996 21.7312 5.58984H20.1354V9.5H21.8884C22.0802 9.5001 22.2715 9.48158 22.4591 9.44477C22.6416 9.41137 22.8166 9.34973 22.9765 9.26252C23.1278 9.18004 23.2561 9.0666 23.3513 8.93115C23.4532 8.77524 23.5036 8.5957 23.4964 8.41421C23.4966 8.2945 23.4741 8.17566 23.4299 8.06296H23.4263ZM21.0784 6.32327H21.7191C21.7942 6.32354 21.8691 6.33019 21.9428 6.34315C22.0143 6.3549 22.0835 6.37611 22.1483 6.40611C22.2081 6.43588 22.2588 6.47878 22.2958 6.53093C22.3367 6.59116 22.3569 6.66116 22.3539 6.73196C22.3556 6.80122 22.3377 6.86972 22.3019 6.93078C22.2693 6.9844 22.2228 7.02991 22.1665 7.06333C22.1079 7.09725 22.0432 7.12155 21.9755 7.13512C21.9053 7.15022 21.8335 7.15763 21.7615 7.15722H21.0784V6.32327ZM22.4953 8.5324C22.459 8.59003 22.4085 8.63918 22.3478 8.67599C22.2864 8.71376 22.2173 8.74004 22.1447 8.75331C22.0725 8.76818 21.9987 8.77559 21.9247 8.7754H21.0784V7.89175H21.7917C21.8726 7.89245 21.9534 7.89799 22.0335 7.90832C22.1186 7.919 22.2018 7.93941 22.2813 7.96907C22.3555 7.99743 22.4207 8.04223 22.4711 8.09941C22.5238 8.16277 22.5507 8.24085 22.5473 8.32032C22.5512 8.394 22.5332 8.46727 22.4953 8.5324Z" fill="url(#paint0_linear_667_730)"/>
<defs>
<linearGradient id="paint0_linear_667_730" x1="0.5" y1="5.00221" x2="23.5" y2="5.00221" gradientUnits="userSpaceOnUse">
<stop stop-color="#90CEA1"/>
<stop offset="0.56" stop-color="#3CBEC9"/>
<stop offset="1" stop-color="#00B3E5"/>
</linearGradient>
</defs>
</svg>
